<?xml version="1.0" encoding="utf-8"?>
<!-- Generator: Adobe Illustrator 19.0.0, SVG Export Plug-In . SVG Version: 6.00 Build 0)  -->
<svg version="1.1" id="Layer_1" xmlns="http://www.w3.org/2000/svg" xmlns:xlink="http://www.w3.org/1999/xlink" x="0px" y="0px"
	 viewBox="-83 175 444 444" style="enable-background:new -83 175 444 444;" xml:space="preserve">
<style type="text/css">
	.st0{fill:#FFB41F;}
	.st1{fill:#14A2FF;}
</style>
<path class="st0" d="M-1.5,505.3h-3.9c-17.1,0-31-13.9-31-31V228.4c0-3.6,0.6-7.1,1.8-10.5c-12.3,4.4-20.5,16.1-20.5,29.2V493
	c0,17.1,13.9,31,31,31h3.9c13.1,0,24.7-8.2,29.2-20.5C5.7,504.7,2.1,505.3-1.5,505.3z"/>
<path class="st0" d="M29.8,505.3c8.2-8.2,12.8-19.4,12.8-31V316.8c0-3.6,0.6-7.1,1.8-10.5c-12.3,4.4-20.5,16.1-20.5,29.2V493
	c0,11.6-4.6,22.8-12.8,31h140.2c-2-6.1-3.4-12.3-4.1-18.7H29.8z"/>
<path class="st1" d="M-20.1,537h181.5V524H11.2c8.2-8.2,12.8-19.4,12.8-31V335.4c0-17.1,13.9-31,31-31h181.8c17.1,0,31,13.9,31,31
	v69.1h13.1v-69.1c0-24.3-19.7-44-44.1-44.1h-2v-1.1c0-24.3-19.7-44-44.1-44.1h-70.4c-0.8,0-1.6-0.3-2.1-0.9l-25.6-28
	c-8.4-9.1-20.2-14.3-32.5-14.3h-84.2c-24.3,0-44,19.7-44.1,44.1V493c0,24.3,19.7,44,44.1,44.1H-20.1z M-55.1,493V247.1
	c0-17.1,13.9-31,31-31h84.2c8.7,0,17,3.7,22.9,10.1l25.5,27.9c3,3.3,7.3,5.2,11.8,5.2h70.4c17.1,0,31,13.9,31,31v1.1H54.9
	c-24.3,0-44,19.7-44.1,44.1V493c0,17.1-13.9,31-31,31h-3.9C-41.2,523.9-55,510.1-55.1,493z"/>
<g>
	<path class="st0" d="M246.3,593c55.1,0,99.8-44.7,99.8-99.8s-44.7-99.8-99.8-99.8s-99.8,44.7-99.8,99.8
		C146.5,548.3,191.2,592.9,246.3,593z M246.3,406.4c47.9,0,86.8,38.8,86.8,86.8s-38.8,86.8-86.8,86.8s-86.8-38.8-86.8-86.8
		C159.6,445.3,198.4,406.5,246.3,406.4z"/>
	<path class="st0" d="M218.1,488.9l21.7-20.2v64c0,3.6,2.9,6.5,6.5,6.5s6.5-2.9,6.5-6.5v-64l21.7,20.2c2.6,2.4,6.8,2.3,9.2-0.4
		c2.4-2.6,2.3-6.7-0.3-9.2l-32.7-30.4c-2.5-2.3-6.4-2.3-8.9,0l-32.7,30.4c-1.7,1.6-2.5,4-1.9,6.3c0.5,2.3,2.2,4.1,4.5,4.8
		C214,491,216.4,490.5,218.1,488.9z"/>
</g>
</svg>
