<?xml version="1.0" encoding="utf-8"?>
<!-- Generator: Adobe Illustrator 19.0.0, SVG Export Plug-In . SVG Version: 6.00 Build 0)  -->
<svg version="1.1" id="Layer_1" xmlns="http://www.w3.org/2000/svg" xmlns:xlink="http://www.w3.org/1999/xlink" x="0px" y="0px"
	 viewBox="-59 151 492 492" style="enable-background:new -59 151 492 492;" xml:space="preserve">
<style type="text/css">
	.st0{fill:#14A2FF;}
	.st1{fill:#FFB41F;}
</style>
<g>
	<path class="st0" d="M386.4,214.2H21.9c-19,0-34.5,15.4-34.5,34.5v152.8h11.4V248.7c0-12.7,10.3-23.1,23.1-23.1h364.5
		c12.7,0,23.1,10.3,23.1,23.1v209c0,12.7-10.3,23.1-23.1,23.1H188.8v11.4h197.6c19,0,34.5-15.4,34.5-34.5v-209
		C420.9,229.6,405.5,214.2,386.4,214.2z"/>
	<path class="st0" d="M301,454.6c18,8.6,39.5,3.7,51.9-11.9s12.4-37.7,0-53.3c-12.4-15.6-34-20.5-51.9-11.9
		c-18-8.6-39.5-3.7-51.9,11.9s-12.4,37.7,0,53.3S283,463.3,301,454.6z M319.5,384.8c12.1,0,23,6.9,28.3,17.8
		c5.2,10.9,3.7,23.8-3.8,33.2c-7.6,9.4-19.8,13.6-31.6,10.9c8.2-8,12.8-19,12.8-30.5s-4.6-22.5-12.8-30.5
		C314.7,385.1,317.1,384.8,319.5,384.8L319.5,384.8z M288.2,416.1c0-10,4.8-19.3,12.8-25.2c8,5.9,12.8,15.3,12.8,25.2
		c0,10-4.8,19.3-12.8,25.2C293,435.5,288.2,426.1,288.2,416.1L288.2,416.1z M251.2,416.1c0-9.6,4.4-18.6,11.8-24.5
		c7.4-5.9,17.3-8.1,26.6-5.9c-8.2,8-12.8,19-12.8,30.5s4.6,22.5,12.8,30.5c-9.3,2.2-19.1,0-26.6-5.9
		C255.5,434.7,251.2,425.7,251.2,416.1L251.2,416.1z"/>
	<path class="st1" d="M183,266.4H30.7c-3.2,0-5.7,2.6-5.7,5.7c0,3.2,2.6,5.7,5.7,5.7H183c3.2,0,5.7-2.6,5.7-5.7
		C188.7,268.9,186.1,266.4,183,266.4z"/>
	<path class="st1" d="M220.1,277.8c3.2,0,5.7-2.6,5.7-5.7c0-3.2-2.6-5.7-5.7-5.7h-16.5c-3.2,0-5.7,2.6-5.7,5.7
		c0,3.2,2.6,5.7,5.7,5.7H220.1z"/>
	<path class="st1" d="M30.7,306.6h7.1c3.2,0,5.7-2.6,5.7-5.7c0-3.2-2.6-5.7-5.7-5.7h-7.1c-3.2,0-5.7,2.6-5.7,5.7
		C25,304,27.5,306.6,30.7,306.6z"/>
	<path class="st1" d="M59.1,295.2c-3.2,0-5.7,2.6-5.7,5.7c0,3.2,2.6,5.7,5.7,5.7h95.1c3.2,0,5.7-2.6,5.7-5.7c0-3.2-2.6-5.7-5.7-5.7
		H59.1z"/>
	<path class="st1" d="M169.2,300.9c0,3.2,2.6,5.7,5.7,5.7h45.3c3.2,0,5.7-2.6,5.7-5.7c0-3.2-2.6-5.7-5.7-5.7h-45.3
		C171.7,295.2,169.2,297.7,169.2,300.9z"/>
</g>
<path class="st1" d="M73.7,362.8C7,362.8-47.1,416.9-47.1,483.6S7,604.4,73.7,604.4s120.8-54.1,120.8-120.8S140.4,362.9,73.7,362.8z
	 M73.7,593c-60.4,0-109.4-49-109.4-109.4s49-109.4,109.4-109.4s109.4,49,109.4,109.4C183,544,134.1,593,73.7,593z"/>
<path class="st1" d="M122.4,449.4l-68.9,56l-27.8-32.6c-2.1-2.4-5.6-2.6-8-0.6s-2.7,5.6-0.7,8L48.4,517c2,2.4,5.5,2.7,7.9,0.7
	l73.2-59.6c2.4-2,2.8-5.6,0.8-8C128.5,447.8,124.9,447.4,122.4,449.4L122.4,449.4z"/>
</svg>
