<?xml version="1.0" encoding="utf-8"?>
<!-- Generator: Adobe Illustrator 19.0.0, SVG Export Plug-In . SVG Version: 6.00 Build 0)  -->
<svg version="1.1" id="Layer_1" xmlns="http://www.w3.org/2000/svg" xmlns:xlink="http://www.w3.org/1999/xlink" x="0px" y="0px"
	 viewBox="-59 150 493 493" style="enable-background:new -59 150 493 493;" xml:space="preserve">
<style type="text/css">
	.st0{fill:#FFB41F;}
	.st1{fill:#14A2FF;}
</style>
<path class="st0" d="M17.4,417.9l-52-34.7l24.9-19.9c14.5-11.6,32.7-18,51.3-18H90L17.4,417.9z"/>
<path class="st0" d="M239.3,494.7v48.5c0,18.6-6.4,36.8-18,51.3l-19.9,24.9l-34.7-52L239.3,494.7z"/>
<path class="st0" d="M-16.7,611.9l-10.6-10.6l-14.9,14.9l10.6,10.6L-16.7,611.9z"/>
<path class="st1" d="M65.4,529.8l-10.6-10.6l-74.7,74.7l10.6,10.6L65.4,529.8z"/>
<path class="st0" d="M-16.7,574.6l-10.6-10.6L-42.2,579l10.6,10.6L-16.7,574.6z"/>
<path class="st1" d="M43,514.9l-10.6-10.6l-52.3,52.3l10.6,10.6L43,514.9z"/>
<path class="st0" d="M20.6,611.9L10,601.4l-14.9,14.9l10.6,10.6L20.6,611.9z"/>
<path class="st1" d="M80.3,552.2l-10.6-10.6l-52.3,52.3l10.6,10.6L80.3,552.2z"/>
<path class="st0" d="M269.5,363.7l64.7-72.8l-40.4-40.4L221,315.1L269.5,363.7z"/>
<path class="st1" d="M108.4,316.4c15-15,35-23.3,56.3-23.3h7.5v7.5c0,4.4-0.4,8.7-1.1,13l81.8-81.8c42.3-42.3,98.5-65.5,158.2-65.5
	h7.5v7.5c0,59.8-23.3,116-65.5,158.2l-81.8,81.8c4.2-0.7,8.6-1.1,13-1.1h7.5v7.5c0,21.3-8.3,41.2-23.3,56.3L149.7,594.8l-40.4-40.4
	l21.7-21.7l10.6,10.6l-11.1,11.1l19.3,19.3l94-94l-19.3-19.3L174,510.8l-10.6-10.6l179-179c1.9-1.9,3.8-3.9,5.7-5.9l-78.8-78.8
	c-2,1.9-4,3.7-5.9,5.7l-179,179l-10.6-10.6l50.4-50.4L104.9,341l-94,94l19.3,19.3l11.1-11.1L52,453.6l-21.7,21.7l-40.4-40.4
	L108.4,316.4z M254.3,469.2l3.5-3.5c10.3-10.3,16.7-23.5,18.5-37.8c-14.3,1.7-27.4,8.1-37.8,18.5l-3.5,3.5L254.3,469.2z
	 M337.7,194.3l52.6,52.6c7.8-20.8,12.3-42.9,13.1-65.7C380.7,182,358.6,186.5,337.7,194.3z M357.9,304
	c10.5-13.1,19.3-27.2,26.3-42.2l-61.2-61.2c-15,7-29.1,15.8-42.2,26.3L357.9,304z M134.8,349.7l3.5-3.5
	c10.3-10.3,16.7-23.5,18.5-37.8c-14.3,1.7-27.4,8.1-37.8,18.5l-3.5,3.5L134.8,349.7z"/>
<path class="st0" d="M77.1,477.6l-52-34.7l24.9-19.9c14.5-11.6,32.7-18,51.3-18h48.5L77.1,477.6z"/>
<path class="st0" d="M179.6,434.9v48.5c0,18.6-6.4,36.8-18,51.3l-19.9,24.9l-34.7-52L179.6,434.9z"/>
<path class="st1" d="M168.1,376.1c15-15,35-23.3,56.3-23.3h7.5v7.5c0,21.3-8.3,41.2-23.3,56.3L90,535.1l-40.4-40.4L168.1,376.1z
	 M216.4,368.2c-14.3,1.7-27.4,8.1-37.8,18.5l-3.5,3.5l19.3,19.3l3.5-3.5C208.3,395.6,214.7,382.5,216.4,368.2z M184,420l-19.3-19.3
	l-94,94L90,514L184,420z"/>
</svg>
